{
  "accessors": [
    {
      "bufferView": 2,
      "componentType": 5126,
      "count": 65533,
      "max": [
        1.7221039533615112,
        0.9144260287284851,
        0.7762550115585327
      ],
      "min": [
        -1.910891056060791,
        -1.145637035369873,
        -0.4322449862957001
      ],
      "type": "VEC3"
    },
    {
      "bufferView": 2,
      "byteOffset": 786396,
      "componentType": 5126,
      "count": 65533,
      "max": [
        0.9999327659606934,
        0.999907374382019,
        0.9999909400939941
      ],
      "min": [
        -0.9997935891151428,
        -0.9999756813049316,
        -0.9999911785125732
      ],
      "type": "VEC3"
    },
    {
      "bufferView": 1,
      "componentType": 5126,
      "count": 65533,
      "max": [
        1.0,
        0.9999880194664001
      ],
      "min": [
        0.0,
        0.0
      ],
      "type": "VEC2"
    },
    {
      "bufferView": 0,
      "componentType": 5125,
      "count": 244839,
      "type": "SCALAR"
    },
    {
      "bufferView": 2,
      "byteOffset": 1572792,
      "componentType": 5126,
      "count": 6777,
      "max": [
        1.7018920183181763,
        0.9095140099525452,
        0.7754309773445129
      ],
      "min": [
        -1.908939003944397,
        -1.1318310499191284,
        -0.41645699739456177
      ],
      "type": "VEC3"
    },
    {
      "bufferView": 2,
      "byteOffset": 1654116,
      "componentType": 5126,
      "count": 6777,
      "max": [
        0.9999327659606934,
        0.9998030066490173,
        0.9998602867126465
      ],
      "min": [
        -0.9992736577987671,
        -0.9997105002403259,
        -0.9999911785125732
      ],
      "type": "VEC3"
    },
    {
      "bufferView": 1,
      "byteOffset": 524264,
      "componentType": 5126,
      "count": 6777,
      "max": [
        0.999987006187439,
        0.9999840259552002
      ],
      "min": [
        4.999999873689376e-06,
        0.0
      ],
      "type": "VEC2"
    },
    {
      "bufferView": 0,
      "byteOffset": 979356,
      "componentType": 5125,
      "count": 8145,
      "type": "SCALAR"
    }
  ],
  "asset": {
    "extras": {
      "author": "Natural History Museum Vienna (https://sketchfab.com/NHMWien)",
      "license": "CC-BY-NC-4.0 (http://creativecommons.org/licenses/by-nc/4.0/)",
      "source": "https://sketchfab.com/3d-models/jewel-scarab-beetle-nhmw-zoo2-col-0000014-8c1787f36241440caa8e535149c0b79a",
      "title": "Jewel Scarab Beetle (NHMW-Zoo2-Col 0000014)"
    },
    "generator": "Sketchfab-13.41.0",
    "version": "2.0"
  },
  "bufferViews": [
    {
      "buffer": 0,
      "byteLength": 1011936,
      "name": "floatBufferViews",
      "target": 34963
    },
    {
      "buffer": 0,
      "byteLength": 578480,
      "byteOffset": 1011936,
      "byteStride": 8,
      "name": "floatBufferViews",
      "target": 34962
    },
    {
      "buffer": 0,
      "byteLength": 1735440,
      "byteOffset": 1590416,
      "byteStride": 12,
      "name": "floatBufferViews",
      "target": 34962
    }
  ],
  "buffers": [
    {
      "byteLength": 3325856,
      "uri": "scene.bin"
    }
  ],
  "images": [
    {
      "uri": "textures/Material.003_baseColor.png"
    }
  ],
  "materials": [
    {
      "doubleSided": true,
      "name": "Material.003",
      "pbrMetallicRoughness": {
        "baseColorTexture": {
          "index": 0
        },
        "metallicFactor": 0.0,
        "roughnessFactor": 0.7491633737796142
      }
    }
  ],
  "meshes": [
    {
      "name": "Object_0",
      "primitives": [
        {
          "attributes": {
            "NORMAL": 1,
            "POSITION": 0,
            "TEXCOORD_0": 2
          },
          "indices": 3,
          "material": 0,
          "mode": 4
        }
      ]
    },
    {
      "name": "Object_1",
      "primitives": [
        {
          "attributes": {
            "NORMAL": 5,
            "POSITION": 4,
            "TEXCOORD_0": 6
          },
          "indices": 7,
          "material": 0,
          "mode": 4
        }
      ]
    }
  ],
  "nodes": [
    {
      "children": [
        1
      ],
      "matrix": [
        0.5298089981079102,
        0.0,
        0.0,
        0.0,
        0.0,
        1.1764122967059757e-16,
        -0.5298089981079102,
        0.0,
        0.0,
        0.5298089981079102,
        1.1764122967059757e-16,
        0.0,
        0.0,
        0.0,
        0.0,
        1.0
      ],
      "name": "Sketchfab_model"
    },
    {
      "children": [
        2,
        3
      ],
      "name": "NHMW-Zoo2-Col-0000014-Chrysina-victorina-lowres.obj.cleaner.materialmerger.gles"
    },
    {
      "mesh": 0,
      "name": "Object_2"
    },
    {
      "mesh": 1,
      "name": "Object_3"
    }
  ],
  "samplers": [
    {
      "magFilter": 9729,
      "minFilter": 9987,
      "wrapS": 10497,
      "wrapT": 10497
    }
  ],
  "scene": 0,
  "scenes": [
    {
      "name": "Sketchfab_Scene",
      "nodes": [
        0
      ]
    }
  ],
  "textures": [
    {
      "sampler": 0,
      "source": 0
    }
  ]
}
