{
  "accessors": [
    {
      "bufferView": 2,
      "componentType": 5126,
      "count": 9054,
      "max": [
        3.9767119884490967,
        5.149086952209473,
        2.3592801094055176
      ],
      "min": [
        -3.9767119884490967,
        0.24946199357509613,
        -2.4148740768432617
      ],
      "type": "VEC3"
    },
    {
      "bufferView": 2,
      "byteOffset": 108648,
      "componentType": 5126,
      "count": 9054,
      "max": [
        1.0,
        1.0,
        1.0
      ],
      "min": [
        -1.0,
        -1.0,
        -1.0
      ],
      "type": "VEC3"
    },
    {
      "bufferView": 3,
      "componentType": 5126,
      "count": 9054,
      "max": [
        1.0,
        1.0,
        1.0,
        1.0
      ],
      "min": [
        -1.0,
        -1.0,
        -1.0,
        -1.0
      ],
      "type": "VEC4"
    },
    {
      "bufferView": 1,
      "componentType": 5126,
      "count": 9054,
      "max": [
        0.9968270063400269,
        0.9968439936637878
      ],
      "min": [
        0.004335000179708004,
        0.0059899999760091305
      ],
      "type": "VEC2"
    },
    {
      "bufferView": 0,
      "componentType": 5125,
      "count": 23334,
      "type": "SCALAR"
    },
    {
      "bufferView": 2,
      "byteOffset": 217296,
      "componentType": 5126,
      "count": 9150,
      "max": [
        0.9966719746589661,
        3.797498941421509,
        1.8869370222091675
      ],
      "min": [
        -0.996645987033844,
        1.008409023284912,
        0.06280499696731567
      ],
      "type": "VEC3"
    },
    {
      "bufferView": 2,
      "byteOffset": 327096,
      "componentType": 5126,
      "count": 9150,
      "max": [
        1.0,
        1.0,
        1.0
      ],
      "min": [
        -1.0,
        -1.0,
        -1.0
      ],
      "type": "VEC3"
    },
    {
      "bufferView": 3,
      "byteOffset": 144864,
      "componentType": 5126,
      "count": 9150,
      "max": [
        1.0,
        1.0,
        1.0,
        1.0
      ],
      "min": [
        -1.0,
        -1.0,
        -1.0,
        -1.0
      ],
      "type": "VEC4"
    },
    {
      "bufferView": 1,
      "byteOffset": 72432,
      "componentType": 5126,
      "count": 9150,
      "max": [
        0.9917050004005432,
        0.9939680099487305
      ],
      "min": [
        0.0007060000207275152,
        0.008237999863922596
      ],
      "type": "VEC2"
    },
    {
      "bufferView": 0,
      "byteOffset": 93336,
      "componentType": 5125,
      "count": 23190,
      "type": "SCALAR"
    },
    {
      "bufferView": 2,
      "byteOffset": 436896,
      "componentType": 5126,
      "count": 7417,
      "max": [
        3.9516489505767822,
        4.34908390045166,
        1.1586320400238037
      ],
      "min": [
        -3.9516489505767822,
        -4.296205997467041,
        -0.19409100711345673
      ],
      "type": "VEC3"
    },
    {
      "bufferView": 2,
      "byteOffset": 525900,
      "componentType": 5126,
      "count": 7417,
      "max": [
        0.9987038373947144,
        1.0,
        0.9986312985420227
      ],
      "min": [
        -0.9986782073974609,
        -1.0,
        -0.9986574053764343
      ],
      "type": "VEC3"
    },
    {
      "bufferView": 3,
      "byteOffset": 291264,
      "componentType": 5126,
      "count": 7417,
      "max": [
        0.999997615814209,
        1.0,
        0.9999978542327881,
        1.0
      ],
      "min": [
        -0.9999975562095642,
        -1.0,
        -1.0,
        -1.0
      ],
      "type": "VEC4"
    },
    {
      "bufferView": 1,
      "byteOffset": 145632,
      "componentType": 5126,
      "count": 7417,
      "max": [
        0.9962970018386841,
        0.9938960075378418
      ],
      "min": [
        0.004064999986439943,
        0.005729000084102154
      ],
      "type": "VEC2"
    },
    {
      "bufferView": 0,
      "byteOffset": 186096,
      "componentType": 5125,
      "count": 18741,
      "type": "SCALAR"
    },
    {
      "bufferView": 2,
      "byteOffset": 614904,
      "componentType": 5126,
      "count": 452,
      "max": [
        1.039270043373108,
        3.602051019668579,
        2.0371339321136475
      ],
      "min": [
        -1.0381089448928833,
        0.5097789764404297,
        0.3249970078468323
      ],
      "type": "VEC3"
    },
    {
      "bufferView": 2,
      "byteOffset": 620328,
      "componentType": 5126,
      "count": 452,
      "max": [
        1.0,
        1.0,
        0.99998939037323
      ],
      "min": [
        -1.0,
        -1.0,
        -0.99998939037323
      ],
      "type": "VEC3"
    },
    {
      "bufferView": 1,
      "byteOffset": 204968,
      "componentType": 5126,
      "count": 452,
      "max": [
        0.7995970249176025,
        0.9696450233459473
      ],
      "min": [
        0.3057279884815216,
        0.3399850130081177
      ],
      "type": "VEC2"
    },
    {
      "bufferView": 0,
      "byteOffset": 261060,
      "componentType": 5125,
      "count": 1728,
      "type": "SCALAR"
    }
  ],
  "asset": {
    "extras": {
      "author": "DrEgguin (https://sketchfab.com/DrEgguin)",
      "license": "CC-BY-4.0 (http://creativecommons.org/licenses/by/4.0/)",
      "source": "https://sketchfab.com/3d-models/eta-2-actis-class-light-interceptor-178f0e05ba64420485e7319c6a9ee6c6",
      "title": "Eta-2 Actis-class Light Interceptor"
    },
    "generator": "Sketchfab-15.27.0",
    "version": "2.0"
  },
  "bufferViews": [
    {
      "buffer": 0,
      "byteLength": 267972,
      "name": "floatBufferViews",
      "target": 34963
    },
    {
      "buffer": 0,
      "byteLength": 208584,
      "byteOffset": 267972,
      "byteStride": 8,
      "name": "floatBufferViews",
      "target": 34962
    },
    {
      "buffer": 0,
      "byteLength": 625752,
      "byteOffset": 476556,
      "byteStride": 12,
      "name": "floatBufferViews",
      "target": 34962
    },
    {
      "buffer": 0,
      "byteLength": 409936,
      "byteOffset": 1102308,
      "byteStride": 16,
      "name": "floatBufferViews",
      "target": 34962
    }
  ],
  "buffers": [
    {
      "byteLength": 1512244,
      "uri": "scene.bin"
    }
  ],
  "extensionsUsed": [
    "KHR_materials_specular"
  ],
  "images": [
    {
      "uri": "textures/Eta2_Body_baseColor.png"
    },
    {
      "uri": "textures/Eta2_Body_metallicRoughness.png"
    },
    {
      "uri": "textures/Eta2_Body_normal.png"
    },
    {
      "uri": "textures/Eta2_Interior_baseColor.png"
    },
    {
      "uri": "textures/Eta2_Wings_baseColor.png"
    }
  ],
  "materials": [
    {
      "doubleSided": true,
      "name": "Eta2_Body",
      "normalTexture": {
        "index": 2
      },
      "pbrMetallicRoughness": {
        "baseColorTexture": {
          "index": 0
        },
        "metallicFactor": 0.3,
        "metallicRoughnessTexture": {
          "index": 1
        },
        "roughnessFactor": 0.8
      }
    },
    {
      "doubleSided": true,
      "extensions": {
        "KHR_materials_specular": {
          "specularColorFactor": [
            1.0,
            1.0,
            1.0
          ],
          "specularFactor": 0.0
        }
      },
      "name": "Eta2_Interior",
      "normalTexture": {
        "index": 2
      },
      "pbrMetallicRoughness": {
        "baseColorTexture": {
          "index": 3
        },
        "metallicFactor": 0.5,
        "metallicRoughnessTexture": {
          "index": 1
        },
        "roughnessFactor": 0.8
      }
    },
    {
      "doubleSided": true,
      "name": "Eta2_Wings",
      "normalTexture": {
        "index": 2
      },
      "pbrMetallicRoughness": {
        "baseColorTexture": {
          "index": 4
        },
        "metallicFactor": 0.3,
        "metallicRoughnessTexture": {
          "index": 1
        },
        "roughnessFactor": 0.8
      }
    },
    {
      "alphaMode": "BLEND",
      "doubleSided": true,
      "name": "Eta2_transBlack",
      "pbrMetallicRoughness": {
        "baseColorFactor": [
          0.007154999999999999,
          0.018913000000000006,
          0.031551,
          0.701961
        ],
        "metallicFactor": 0.0,
        "roughnessFactor": 0.25
      }
    }
  ],
  "meshes": [
    {
      "name": "Object_0",
      "primitives": [
        {
          "attributes": {
            "NORMAL": 1,
            "POSITION": 0,
            "TANGENT": 2,
            "TEXCOORD_0": 3
          },
          "indices": 4,
          "material": 0,
          "mode": 4
        }
      ]
    },
    {
      "name": "Object_1",
      "primitives": [
        {
          "attributes": {
            "NORMAL": 6,
            "POSITION": 5,
            "TANGENT": 7,
            "TEXCOORD_0": 8
          },
          "indices": 9,
          "material": 1,
          "mode": 4
        }
      ]
    },
    {
      "name": "Object_2",
      "primitives": [
        {
          "attributes": {
            "NORMAL": 11,
            "POSITION": 10,
            "TANGENT": 12,
            "TEXCOORD_0": 13
          },
          "indices": 14,
          "material": 2,
          "mode": 4
        }
      ]
    },
    {
      "name": "Object_3",
      "primitives": [
        {
          "attributes": {
            "NORMAL": 16,
            "POSITION": 15,
            "TEXCOORD_0": 17
          },
          "indices": 18,
          "material": 3,
          "mode": 4
        }
      ]
    }
  ],
  "nodes": [
    {
      "children": [
        1
      ],
      "matrix": [
        1.0,
        0.0,
        0.0,
        0.0,
        0.0,
        2.220446049250313e-16,
        -1.0,
        0.0,
        0.0,
        1.0,
        2.220446049250313e-16,
        0.0,
        0.0,
        0.0,
        0.0,
        1.0
      ],
      "name": "Sketchfab_model"
    },
    {
      "children": [
        2,
        3,
        4,
        5
      ],
      "name": "Eta2_whole.obj.cleaner.materialmerger.gles"
    },
    {
      "mesh": 0,
      "name": "Object_2"
    },
    {
      "mesh": 1,
      "name": "Object_3"
    },
    {
      "mesh": 2,
      "name": "Object_4"
    },
    {
      "mesh": 3,
      "name": "Object_5"
    }
  ],
  "samplers": [
    {
      "magFilter": 9729,
      "minFilter": 9987,
      "wrapS": 10497,
      "wrapT": 10497
    }
  ],
  "scene": 0,
  "scenes": [
    {
      "name": "Sketchfab_Scene",
      "nodes": [
        0
      ]
    }
  ],
  "textures": [
    {
      "sampler": 0,
      "source": 0
    },
    {
      "sampler": 0,
      "source": 1
    },
    {
      "sampler": 0,
      "source": 2
    },
    {
      "sampler": 0,
      "source": 3
    },
    {
      "sampler": 0,
      "source": 4
    }
  ]
}
