{
  "accessors": [
    {
      "bufferView": 2,
      "componentType": 5126,
      "count": 15016,
      "max": [
        18.68134117126465,
        5.257795810699463,
        17.172040939331055
      ],
      "min": [
        -11.919818878173828,
        -6.943205833435059,
        -19.92276954650879
      ],
      "type": "VEC3"
    },
    {
      "bufferView": 2,
      "byteOffset": 180192,
      "componentType": 5126,
      "count": 15016,
      "max": [
        1.0,
        1.0,
        1.0
      ],
      "min": [
        -1.0,
        -1.0,
        -1.0
      ],
      "type": "VEC3"
    },
    {
      "bufferView": 0,
      "componentType": 5125,
      "count": 75096,
      "type": "SCALAR"
    },
    {
      "bufferView": 2,
      "byteOffset": 360384,
      "componentType": 5126,
      "count": 2731,
      "max": [
        3.0835986137390137,
        0.7190943360328674,
        12.476812362670898
      ],
      "min": [
        -1.9780604839324951,
        -0.7190942764282227,
        4.343257904052734
      ],
      "type": "VEC3"
    },
    {
      "bufferView": 2,
      "byteOffset": 393156,
      "componentType": 5126,
      "count": 2731,
      "max": [
        0.9998884797096252,
        1.0,
        0.98810875415802
      ],
      "min": [
        -0.9997707605361938,
        -1.0,
        -0.9881337881088257
      ],
      "type": "VEC3"
    },
    {
      "bufferView": 1,
      "componentType": 5126,
      "count": 2731,
      "max": [
        0.9428455233573914,
        0.8750001192092896
      ],
      "min": [
        0.05715462937951088,
        0.0
      ],
      "type": "VEC2"
    },
    {
      "bufferView": 0,
      "byteOffset": 300384,
      "componentType": 5125,
      "count": 11616,
      "type": "SCALAR"
    },
    {
      "bufferView": 2,
      "byteOffset": 425928,
      "componentType": 5126,
      "count": 17562,
      "max": [
        5.58881950378418,
        1.9228017330169678,
        4.538429260253906
      ],
      "min": [
        -5.588811874389648,
        -1.078147292137146,
        -4.539009094238281
      ],
      "type": "VEC3"
    },
    {
      "bufferView": 2,
      "byteOffset": 636672,
      "componentType": 5126,
      "count": 17562,
      "max": [
        0.9999983906745911,
        0.9990036487579346,
        1.0
      ],
      "min": [
        -0.9999983906745911,
        -0.9999935626983643,
        -1.0
      ],
      "type": "VEC3"
    },
    {
      "bufferView": 1,
      "byteOffset": 21848,
      "componentType": 5126,
      "count": 17562,
      "max": [
        1.0,
        1.0000001192092896
      ],
      "min": [
        0.0,
        0.0
      ],
      "type": "VEC2"
    },
    {
      "bufferView": 0,
      "byteOffset": 346848,
      "componentType": 5125,
      "count": 89712,
      "type": "SCALAR"
    },
    {
      "bufferView": 2,
      "byteOffset": 847416,
      "componentType": 5126,
      "count": 3276,
      "max": [
        1.120694875717163,
        0.08243969082832336,
        2.2975120544433594
      ],
      "min": [
        -0.506828784942627,
        -3.119158983230591,
        -0.19723749160766602
      ],
      "type": "VEC3"
    },
    {
      "bufferView": 2,
      "byteOffset": 886728,
      "componentType": 5126,
      "count": 3276,
      "max": [
        0.9999004602432251,
        0.9999992847442627,
        0.9997674822807312
      ],
      "min": [
        -0.999904990196228,
        -0.9999997615814209,
        -0.9997622966766357
      ],
      "type": "VEC3"
    },
    {
      "bufferView": 1,
      "byteOffset": 162344,
      "componentType": 5126,
      "count": 3276,
      "max": [
        1.0,
        1.0
      ],
      "min": [
        0.0,
        0.0
      ],
      "type": "VEC2"
    },
    {
      "bufferView": 0,
      "byteOffset": 705696,
      "componentType": 5125,
      "count": 15984,
      "type": "SCALAR"
    },
    {
      "bufferView": 2,
      "byteOffset": 926040,
      "componentType": 5126,
      "count": 18348,
      "max": [
        19.673065185546875,
        0.9166666865348816,
        22.28638458251953
      ],
      "min": [
        -1.0000001192092896,
        -6.815664768218994,
        -0.9457376599311829
      ],
      "type": "VEC3"
    },
    {
      "bufferView": 2,
      "byteOffset": 1146216,
      "componentType": 5126,
      "count": 18348,
      "max": [
        1.0,
        1.0,
        1.0
      ],
      "min": [
        -1.0,
        -1.0,
        -1.0
      ],
      "type": "VEC3"
    },
    {
      "bufferView": 0,
      "byteOffset": 769632,
      "componentType": 5125,
      "count": 93240,
      "type": "SCALAR"
    },
    {
      "bufferView": 2,
      "byteOffset": 1366392,
      "componentType": 5126,
      "count": 6622,
      "max": [
        8.371136665344238,
        11.233262062072754,
        48.2888298034668
      ],
      "min": [
        -10.071306228637695,
        -11.297019958496094,
        -48.31553268432617
      ],
      "type": "VEC3"
    },
    {
      "bufferView": 2,
      "byteOffset": 1445856,
      "componentType": 5126,
      "count": 6622,
      "max": [
        1.0,
        1.0,
        1.0
      ],
      "min": [
        -1.0,
        -1.0,
        -1.0
      ],
      "type": "VEC3"
    },
    {
      "bufferView": 1,
      "byteOffset": 188552,
      "componentType": 5126,
      "count": 6622,
      "max": [
        1.000000238418579,
        1.0
      ],
      "min": [
        0.0,
        0.0
      ],
      "type": "VEC2"
    },
    {
      "bufferView": 0,
      "byteOffset": 1142592,
      "componentType": 5125,
      "count": 19956,
      "type": "SCALAR"
    },
    {
      "bufferView": 2,
      "byteOffset": 1525320,
      "componentType": 5126,
      "count": 10716,
      "max": [
        1.0108528137207031,
        2.578916549682617,
        -0.6663439869880676
      ],
      "min": [
        -1.012394905090332,
        -4.660444259643555,
        -3.386343240737915
      ],
      "type": "VEC3"
    },
    {
      "bufferView": 2,
      "byteOffset": 1653912,
      "componentType": 5126,
      "count": 10716,
      "max": [
        1.0,
        1.0,
        1.0
      ],
      "min": [
        -1.0,
        -1.0,
        -1.0
      ],
      "type": "VEC3"
    },
    {
      "bufferView": 1,
      "byteOffset": 241528,
      "componentType": 5126,
      "count": 10716,
      "max": [
        0.9999071955680847,
        0.9997780323028564
      ],
      "min": [
        2.1471025775099406e-06,
        0.0191228985786438
      ],
      "type": "VEC2"
    },
    {
      "bufferView": 0,
      "byteOffset": 1222416,
      "componentType": 5125,
      "count": 63762,
      "type": "SCALAR"
    },
    {
      "bufferView": 2,
      "byteOffset": 1782504,
      "componentType": 5126,
      "count": 6618,
      "max": [
        88.58013153076172,
        1.072662353515625,
        38.1736946105957
      ],
      "min": [
        -88.9112777709961,
        -0.8145084381103516,
        -38.37611770629883
      ],
      "type": "VEC3"
    },
    {
      "bufferView": 2,
      "byteOffset": 1861920,
      "componentType": 5126,
      "count": 6618,
      "max": [
        0.9976688623428345,
        1.0,
        0.9999953508377075
      ],
      "min": [
        -0.9976688623428345,
        -1.0,
        -0.9999953508377075
      ],
      "type": "VEC3"
    },
    {
      "bufferView": 1,
      "byteOffset": 327256,
      "componentType": 5126,
      "count": 6618,
      "max": [
        1.000000238418579,
        1.0
      ],
      "min": [
        0.0,
        0.0
      ],
      "type": "VEC2"
    },
    {
      "bufferView": 0,
      "byteOffset": 1477464,
      "componentType": 5125,
      "count": 19956,
      "type": "SCALAR"
    },
    {
      "bufferView": 3,
      "componentType": 5126,
      "count": 585,
      "max": [
        24.0
      ],
      "min": [
        0.03999999910593033
      ],
      "type": "SCALAR"
    },
    {
      "bufferView": 4,
      "componentType": 5126,
      "count": 585,
      "max": [
        0.002937115030363202,
        0.029201354831457138,
        0.0068102567456662655
      ],
      "min": [
        0.002937115030363202,
        0.02920134738087654,
        0.006810254883021116
      ],
      "type": "VEC3"
    },
    {
      "bufferView": 3,
      "byteOffset": 2340,
      "componentType": 5126,
      "count": 600,
      "max": [
        24.0
      ],
      "min": [
        0.03999999910593033
      ],
      "type": "SCALAR"
    },
    {
      "bufferView": 5,
      "componentType": 5126,
      "count": 600,
      "max": [
        5.33711990158281e-08,
        1.0,
        1.0,
        2.1402556171778997e-08
      ],
      "min": [
        -8.723880284833285e-08,
        -0.7069229483604431,
        -0.6980562806129456,
        -8.410701468619664e-08
      ],
      "type": "VEC4"
    },
    {
      "bufferView": 3,
      "byteOffset": 4740,
      "componentType": 5126,
      "count": 490,
      "max": [
        24.0
      ],
      "min": [
        0.03999999910593033
      ],
      "type": "SCALAR"
    },
    {
      "bufferView": 4,
      "byteOffset": 7020,
      "componentType": 5126,
      "count": 490,
      "max": [
        0.03011796437203884,
        0.2994384169578552,
        0.06983418762683868
      ],
      "min": [
        0.030117956921458244,
        0.2994384169578552,
        0.0698341578245163
      ],
      "type": "VEC3"
    },
    {
      "bufferView": 3,
      "byteOffset": 6700,
      "componentType": 5126,
      "count": 600,
      "max": [
        24.0
      ],
      "min": [
        0.03999999910593033
      ],
      "type": "SCALAR"
    },
    {
      "bufferView": 5,
      "byteOffset": 9600,
      "componentType": 5126,
      "count": 600,
      "max": [
        1.5380804362278666e-15,
        1.0,
        8.719793381003604e-16,
        1.0
      ],
      "min": [
        -1.7763568394002505e-15,
        -0.8658624887466431,
        -1.7763568394002505e-15,
        -0.49088069796562195
      ],
      "type": "VEC4"
    }
  ],
  "animations": [
    {
      "channels": [
        {
          "sampler": 0,
          "target": {
            "node": 24,
            "path": "scale"
          }
        },
        {
          "sampler": 1,
          "target": {
            "node": 24,
            "path": "rotation"
          }
        },
        {
          "sampler": 2,
          "target": {
            "node": 32,
            "path": "scale"
          }
        },
        {
          "sampler": 3,
          "target": {
            "node": 32,
            "path": "rotation"
          }
        }
      ],
      "name": "Rotor Animation",
      "samplers": [
        {
          "input": 30,
          "interpolation": "LINEAR",
          "output": 31
        },
        {
          "input": 32,
          "interpolation": "LINEAR",
          "output": 33
        },
        {
          "input": 34,
          "interpolation": "LINEAR",
          "output": 35
        },
        {
          "input": 36,
          "interpolation": "LINEAR",
          "output": 37
        }
      ]
    }
  ],
  "asset": {
    "extras": {
      "author": "VertaScan (https://sketchfab.com/VertaScan)",
      "license": "CC-BY-4.0 (http://creativecommons.org/licenses/by/4.0/)",
      "source": "https://sketchfab.com/3d-models/pronto-helicopter-a74451f3850e42e3b87cbfc08c680e19",
      "title": "Pronto - Helicopter"
    },
    "generator": "Sketchfab-12.67.0",
    "version": "2.0"
  },
  "bufferViews": [
    {
      "buffer": 0,
      "byteLength": 1557288,
      "name": "floatBufferViews",
      "target": 34963
    },
    {
      "buffer": 0,
      "byteLength": 380200,
      "byteOffset": 1557288,
      "byteStride": 8,
      "name": "floatBufferViews",
      "target": 34962
    },
    {
      "buffer": 0,
      "byteLength": 1941336,
      "byteOffset": 1937488,
      "byteStride": 12,
      "name": "floatBufferViews",
      "target": 34962
    },
    {
      "buffer": 0,
      "byteLength": 9100,
      "byteOffset": 3878824,
      "name": "floatBufferViews"
    },
    {
      "buffer": 0,
      "byteLength": 12900,
      "byteOffset": 3887924,
      "byteStride": 12,
      "name": "floatBufferViews"
    },
    {
      "buffer": 0,
      "byteLength": 19200,
      "byteOffset": 3900824,
      "byteStride": 16,
      "name": "floatBufferViews"
    }
  ],
  "buffers": [
    {
      "byteLength": 3920024,
      "uri": "scene.bin"
    }
  ],
  "extensionsUsed": [
    "KHR_materials_clearcoat"
  ],
  "images": [
    {
      "uri": "textures/mesh_id28_002_baseColor.png"
    },
    {
      "uri": "textures/mesh_id28_002_clearcoat.png"
    }
  ],
  "materials": [
    {
      "doubleSided": true,
      "name": "Cube_012",
      "pbrMetallicRoughness": {
        "baseColorFactor": [
          0.014139134381343963,
          0.013221250745415143,
          0.013221250745415143,
          1.0
        ],
        "roughnessFactor": 0.38476095799208365
      }
    },
    {
      "doubleSided": true,
      "extensions": {
        "KHR_materials_clearcoat": {
          "clearcoatFactor": 0.5671661528920344,
          "clearcoatRoughnessFactor": 0.3361195726854301
        }
      },
      "name": "Torus_003",
      "pbrMetallicRoughness": {
        "baseColorFactor": [
          0.005097615027984815,
          0.005097615027984815,
          0.005097615027984815,
          1.0
        ],
        "metallicFactor": 0.792132559935307,
        "roughnessFactor": 0.6
      }
    },
    {
      "doubleSided": true,
      "name": "Cube_008",
      "pbrMetallicRoughness": {
        "baseColorFactor": [
          0.0370154705550823,
          0.04167169351225247,
          0.02741528342851181,
          1.0
        ],
        "roughnessFactor": 0.6887696161586683
      }
    },
    {
      "doubleSided": true,
      "name": "NurbsCurve",
      "pbrMetallicRoughness": {
        "baseColorFactor": [
          0.03564081245896186,
          0.03564081245896186,
          0.03564081245896186,
          1.0
        ],
        "roughnessFactor": 0.6
      }
    },
    {
      "doubleSided": true,
      "name": "Cube_010",
      "pbrMetallicRoughness": {
        "baseColorFactor": [
          0.12856811131236873,
          0.12034101592064754,
          0.12034101592064754,
          1.0
        ],
        "roughnessFactor": 0.5854066723820295
      }
    },
    {
      "doubleSided": true,
      "name": "Cylinder_008",
      "pbrMetallicRoughness": {
        "baseColorFactor": [
          0.015876293507004053,
          0.013924688612463734,
          0.013924688612463734,
          1.0
        ],
        "roughnessFactor": 0.6644489235053415
      }
    },
    {
      "doubleSided": true,
      "extensions": {
        "KHR_materials_clearcoat": {
          "clearcoatFactor": 0.46988338227872734,
          "clearcoatRoughnessFactor": 0.3543600921754252,
          "clearcoatTexture": {
            "index": 1
          }
        }
      },
      "name": "mesh_id28_002",
      "pbrMetallicRoughness": {
        "baseColorTexture": {
          "index": 0
        },
        "roughnessFactor": 0.7374110014653218
      }
    },
    {
      "doubleSided": true,
      "name": "Cylinder_006",
      "pbrMetallicRoughness": {
        "baseColorFactor": [
          0.020742511621608114,
          0.020742511621608114,
          0.020742511621608114,
          1.0
        ],
        "roughnessFactor": 0.45772303595206393
      }
    }
  ],
  "meshes": [
    {
      "name": "Cube_012_2_0",
      "primitives": [
        {
          "attributes": {
            "NORMAL": 1,
            "POSITION": 0
          },
          "indices": 2,
          "material": 0,
          "mode": 4
        }
      ]
    },
    {
      "name": "Torus_003_7_0",
      "primitives": [
        {
          "attributes": {
            "NORMAL": 4,
            "POSITION": 3,
            "TEXCOORD_0": 5
          },
          "indices": 6,
          "material": 1,
          "mode": 4
        }
      ]
    },
    {
      "name": "Cube_008_12_0",
      "primitives": [
        {
          "attributes": {
            "NORMAL": 8,
            "POSITION": 7,
            "TEXCOORD_0": 9
          },
          "indices": 10,
          "material": 2,
          "mode": 4
        }
      ]
    },
    {
      "name": "NurbsCurve_16_0",
      "primitives": [
        {
          "attributes": {
            "NORMAL": 12,
            "POSITION": 11,
            "TEXCOORD_0": 13
          },
          "indices": 14,
          "material": 3,
          "mode": 4
        }
      ]
    },
    {
      "name": "Cube_010_19_0",
      "primitives": [
        {
          "attributes": {
            "NORMAL": 16,
            "POSITION": 15
          },
          "indices": 17,
          "material": 4,
          "mode": 4
        }
      ]
    },
    {
      "name": "Cylinder_008_23_0",
      "primitives": [
        {
          "attributes": {
            "NORMAL": 19,
            "POSITION": 18,
            "TEXCOORD_0": 20
          },
          "indices": 21,
          "material": 5,
          "mode": 4
        }
      ]
    },
    {
      "name": "mesh_id28_002_28_0",
      "primitives": [
        {
          "attributes": {
            "NORMAL": 23,
            "POSITION": 22,
            "TEXCOORD_0": 24
          },
          "indices": 25,
          "material": 6,
          "mode": 4
        }
      ]
    },
    {
      "name": "Cylinder_006_31_0",
      "primitives": [
        {
          "attributes": {
            "NORMAL": 27,
            "POSITION": 26,
            "TEXCOORD_0": 28
          },
          "indices": 29,
          "material": 7,
          "mode": 4
        }
      ]
    }
  ],
  "nodes": [
    {
      "children": [
        1
      ],
      "matrix": [
        1.0,
        0.0,
        0.0,
        0.0,
        0.0,
        2.220446049250313e-16,
        -1.0,
        0.0,
        0.0,
        1.0,
        2.220446049250313e-16,
        0.0,
        0.0,
        0.0,
        0.0,
        1.0
      ],
      "name": "Sketchfab_model"
    },
    {
      "children": [
        2
      ],
      "name": "f3fb7855b8b74db3beb681df9747968b.abc.cleaner.materialmerger.gles"
    },
    {
      "children": [
        3
      ],
      "matrix": [
        1.0,
        0.0,
        0.0,
        0.0,
        0.0,
        2.220446049250313e-16,
        1.0,
        0.0,
        0.0,
        -1.0,
        2.220446049250313e-16,
        0.0,
        0.0,
        0.0,
        0.0,
        1.0
      ],
      "name": "Object_2"
    },
    {
      "children": [
        4,
        8,
        12,
        16,
        20,
        24,
        28,
        32
      ],
      "name": "Object_3"
    },
    {
      "children": [
        5
      ],
      "matrix": [
        -0.07292189449071884,
        0.0,
        0.017422469332814217,
        0.0,
        0.0,
        -0.08329188823699951,
        0.0,
        0.0,
        -0.017422469332814217,
        0.0,
        -0.07292189449071884,
        0.0,
        -4.76837158203125e-07,
        0.44046080112457275,
        0.8497676253318787,
        1.0
      ],
      "name": "Object_4"
    },
    {
      "children": [
        6
      ],
      "name": "TimeframeMainGroup"
    },
    {
      "children": [
        7
      ],
      "name": "Object_6"
    },
    {
      "mesh": 0,
      "name": "Cube_012_2_0"
    },
    {
      "children": [
        9
      ],
      "matrix": [
        3.97531074725066e-08,
        -0.5265458822250366,
        0.0,
        0.0,
        1.3906383514404297,
        1.0499027780497272e-07,
        0.0,
        0.0,
        0.0,
        0.0,
        0.5265458822250366,
        0.0,
        0.0,
        2.299999952316284,
        -4.0,
        1.0
      ],
      "name": "Object_8"
    },
    {
      "children": [
        10
      ],
      "name": "TimeframeMainGroup"
    },
    {
      "children": [
        11
      ],
      "name": "Object_10"
    },
    {
      "mesh": 1,
      "name": "Torus_003_7_0"
    },
    {
      "children": [
        13
      ],
      "matrix": [
        0.22607052326202393,
        0.0,
        0.0,
        0.0,
        0.0,
        0.2869968116283417,
        0.0,
        0.0,
        0.0,
        0.0,
        0.22607052326202393,
        0.0,
        -8.940696716308594e-07,
        1.20009183883667,
        -1.8002132177352905,
        1.0
      ],
      "name": "Object_12"
    },
    {
      "children": [
        14
      ],
      "name": "TimeframeMainGroup"
    },
    {
      "children": [
        15
      ],
      "name": "Object_14"
    },
    {
      "mesh": 2,
      "name": "Cube_008_12_0"
    },
    {
      "children": [
        17
      ],
      "matrix": [
        0.2547863721847534,
        0.46118441224098206,
        6.196419377602069e-08,
        0.0,
        -6.47825828536952e-08,
        -3.5001718856619846e-08,
        0.5268843770027161,
        0.0,
        0.46118441224098206,
        -0.2547863721847534,
        3.977866569471189e-08,
        0.0,
        -0.5417253971099854,
        2.245598793029785,
        -1.0,
        1.0
      ],
      "name": "Object_16"
    },
    {
      "children": [
        18
      ],
      "name": "TimeframeMainGroup"
    },
    {
      "children": [
        19
      ],
      "name": "Object_18"
    },
    {
      "mesh": 3,
      "name": "NurbsCurve_16_0"
    },
    {
      "children": [
        21
      ],
      "matrix": [
        -0.07497429847717285,
        0.0,
        0.0,
        0.0,
        0.0,
        -0.07497429847717285,
        0.0,
        0.0,
        0.0,
        0.0,
        -0.07497429847717285,
        0.0,
        0.699999988079071,
        1.5733006000518799,
        -1.0,
        1.0
      ],
      "name": "Object_20"
    },
    {
      "children": [
        22
      ],
      "name": "TimeframeMainGroup"
    },
    {
      "children": [
        23
      ],
      "name": "Object_22"
    },
    {
      "mesh": 4,
      "name": "Cube_010_19_0"
    },
    {
      "children": [
        25
      ],
      "name": "Object_24",
      "rotation": [
        0.0,
        0.0,
        1.0,
        -4.670849484966766e-09
      ],
      "scale": [
        0.002937115030363202,
        0.02920135110616684,
        0.006810255814343691
      ],
      "translation": [
        0.09858064353466034,
        2.2928860187530518,
        -3.9957497119903564
      ]
    },
    {
      "children": [
        26
      ],
      "name": "TimeframeMainGroup"
    },
    {
      "children": [
        27
      ],
      "name": "Object_26"
    },
    {
      "mesh": 5,
      "name": "Cylinder_008_23_0"
    },
    {
      "children": [
        29
      ],
      "matrix": [
        0.9957347512245178,
        7.098258647530997e-10,
        -0.016238922253251076,
        0.0,
        0.016238922253251076,
        -4.351916160771907e-08,
        0.9957347512245178,
        0.0,
        9.447650317238529e-14,
        -0.9958673715591431,
        -4.3524956083729194e-08,
        0.0,
        -0.03721373528242111,
        0.023222431540489197,
        -0.0157451331615448,
        1.0
      ],
      "name": "Object_28"
    },
    {
      "children": [
        30
      ],
      "name": "TimeframeMainGroup"
    },
    {
      "children": [
        31
      ],
      "name": "Object_30"
    },
    {
      "mesh": 6,
      "name": "mesh_id28_002_28_0"
    },
    {
      "children": [
        33
      ],
      "name": "Object_32",
      "rotation": [
        0.0,
        0.0,
        -8.366638346118092e-16,
        1.0
      ],
      "scale": [
        0.030117960646748543,
        0.2994384169578552,
        0.06983417272567749
      ],
      "translation": [
        0.0,
        3.5999999046325684,
        2.384185791015625e-07
      ]
    },
    {
      "children": [
        34
      ],
      "name": "TimeframeMainGroup"
    },
    {
      "children": [
        35
      ],
      "name": "Object_34"
    },
    {
      "mesh": 7,
      "name": "Cylinder_006_31_0"
    }
  ],
  "samplers": [
    {
      "magFilter": 9729,
      "minFilter": 9987,
      "wrapS": 10497,
      "wrapT": 10497
    }
  ],
  "scene": 0,
  "scenes": [
    {
      "name": "Sketchfab_Scene",
      "nodes": [
        0
      ]
    }
  ],
  "textures": [
    {
      "sampler": 0,
      "source": 0
    },
    {
      "sampler": 0,
      "source": 1
    }
  ]
}
